<svg width="86" height="83" viewBox="0 0 86 83" fill="none" xmlns="http://www.w3.org/2000/svg">
<g clip-path="url(#clip0_2221_2)">
<path d="M59.57 83.0003C59.22 83.0003 58.45 83.0003 58.1 82.6503H57.75L35 73.1303L12.32 82.6503C10.85 83.3503 9.03 83.0003 7.91 82.3003C6.79 81.6003 6.09 80.1303 6.09 78.6603V27.3503C6.09 19.3003 12.32 13.0703 20.37 13.0703H49.7C57.75 13.0703 63.98 19.3003 63.98 27.3503V78.6603C63.98 80.1303 63.28 81.6003 62.16 82.3003C61.39 82.6503 60.27 83.0003 59.57 83.0003ZM20.37 20.0003C16.73 20.0003 13.44 23.2903 13.44 26.9303V74.1803L35 65.0803L56.63 74.2503V26.9303C56.63 23.2903 53.34 20.0003 49.7 20.0003H20.37Z" fill="#6C5DD3"/>
</g>
<circle cx="64" cy="22" r="22" fill="#FF754C"/>
<path d="M73.39 21.6C73.6647 21.3192 73.856 20.9676 73.9425 20.5845C74.0291 20.2013 74.0074 19.8016 73.88 19.43C73.7605 19.0573 73.5387 18.7257 73.2399 18.4729C72.9411 18.2201 72.5774 18.0562 72.19 18L67.9 17.34C67.88 17.3342 67.8616 17.324 67.846 17.3102C67.8304 17.2963 67.8181 17.2792 67.81 17.26L65.93 13.26C65.7652 12.8855 65.4949 12.5669 65.1523 12.3432C64.8096 12.1195 64.4093 12.0003 64 12C63.5955 11.9983 63.1992 12.1135 62.8585 12.3317C62.5179 12.5499 62.2476 12.8619 62.08 13.23L60.2 17.23C60.1898 17.2495 60.1756 17.2667 60.1584 17.2805C60.1412 17.2942 60.1213 17.3043 60.1 17.31L55.82 18C55.4321 18.0578 55.0679 18.2221 54.7677 18.4745C54.4676 18.727 54.2434 19.0577 54.12 19.43C53.9973 19.8029 53.9791 20.2023 54.0672 20.5848C54.1553 20.9673 54.3465 21.3184 54.62 21.6L57.78 24.85C57.7891 24.8705 57.7938 24.8926 57.7938 24.915C57.7938 24.9374 57.7891 24.9596 57.78 24.98L57.04 29.52C56.9712 29.9154 57.0161 30.3222 57.1694 30.6931C57.3226 31.064 57.578 31.3838 57.9059 31.6152C58.2337 31.8467 58.6205 31.9804 59.0213 32.0007C59.4221 32.021 59.8205 31.9272 60.17 31.73L63.9 29.66C63.9186 29.6504 63.9391 29.6453 63.96 29.6453C63.9809 29.6453 64.0015 29.6504 64.02 29.66L67.75 31.73C68.1001 31.9229 68.4973 32.0134 68.8963 31.9913C69.2954 31.9691 69.6801 31.835 70.0066 31.6045C70.3331 31.374 70.5882 31.0563 70.7426 30.6877C70.897 30.319 70.9447 29.9144 70.88 29.52L70.19 25C70.1795 24.9818 70.174 24.9611 70.174 24.94C70.174 24.919 70.1795 24.8983 70.19 24.88L73.39 21.6Z" fill="white"/>
<defs>
<clipPath id="clip0_2221_2">
<rect width="70" height="70" fill="white" transform="translate(0 13)"/>
</clipPath>
</defs>
</svg>
